<svg width="460" height="460" viewBox="0 0 460 460" fill="none" xmlns="http://www.w3.org/2000/svg">
<g filter="url(#filter0_f_2_450)">
<rect x="40" y="40" width="380" height="380" rx="60" fill="#4BB6C1" fill-opacity="0.4"/>
</g>
<rect x="57" y="58" width="345" height="345" rx="60" fill="#94CFD5"/>
<path d="M229.731 354C298.618 354 354.462 298.483 354.462 230C354.462 161.517 298.618 106 229.731 106C160.844 106 105 161.517 105 230C105 298.483 160.844 354 229.731 354Z" fill="url(#paint0_linear_2_450)"/>
<path d="M304.335 304.167C314.175 294.385 321.659 283.146 326.798 271.155L229.731 230L271.129 326.498C283.191 321.389 294.495 313.949 304.335 304.167Z" fill="#B7B7B7"/>
<path d="M155.127 304.167C164.967 313.949 176.271 321.389 188.333 326.498L229.731 230L132.664 271.155C137.803 283.146 145.287 294.385 155.127 304.167Z" fill="#757575"/>
<path d="M155.127 155.833C145.287 165.615 137.803 176.854 132.664 188.845L229.731 230L188.333 133.502C176.271 138.611 164.967 146.051 155.127 155.833Z" fill="#8F8F8F"/>
<path d="M304.335 155.833C294.495 146.051 283.191 138.611 271.129 133.502L229.731 230L326.798 188.845C321.659 176.854 314.175 165.615 304.335 155.833Z" fill="#B7B7B7"/>
<path d="M324.772 275.61C331.486 261.822 335.246 246.348 335.246 230C335.246 213.652 331.486 198.178 324.772 184.391C325.492 185.859 326.163 187.352 326.81 188.845L229.743 230L326.81 271.155C326.163 272.648 325.492 274.141 324.772 275.61Z" fill="#757575"/>
<path d="M134.69 184.391C127.976 198.178 124.216 213.652 124.216 230C124.216 246.348 127.976 261.822 134.69 275.61C133.97 274.141 133.299 272.648 132.652 271.155L229.719 230L132.664 188.845C133.311 187.352 133.982 185.859 134.703 184.391H134.69Z" fill="#B7B7B7"/>
<path d="M275.609 135.516C261.741 128.841 246.176 125.103 229.731 125.103C213.287 125.103 197.721 128.841 183.853 135.516C185.33 134.812 186.832 134.133 188.333 133.489L229.731 229.988L271.129 133.502C272.631 134.145 274.132 134.812 275.609 135.528V135.516Z" fill="#666666"/>
<path d="M271.129 326.498L229.731 230L188.333 326.498C186.832 325.855 185.33 325.188 183.853 324.472C197.721 331.147 213.287 334.885 229.731 334.885C246.176 334.885 261.741 331.147 275.609 324.472C274.132 325.188 272.631 325.855 271.129 326.498Z" fill="#8F8F8F"/>
<g style="mix-blend-mode:overlay">
<path d="M229.731 137.713L247.494 187.364L295.374 164.741L272.618 212.341L322.562 230L272.618 247.659L295.374 295.259L247.494 272.636L229.731 322.287L211.968 272.636L164.088 295.259L186.844 247.659L136.9 230L186.844 212.341L164.088 164.741L211.968 187.364L229.731 137.713Z" fill="#666666"/>
</g>
<path d="M239.69 238.384C244.341 232.918 243.655 224.74 238.157 220.116C232.66 215.493 224.433 216.175 219.782 221.64C215.131 227.106 215.818 235.284 221.315 239.908C226.813 244.531 235.04 243.849 239.69 238.384Z" fill="url(#paint1_linear_2_450)"/>
<path d="M235.799 107.304V162.207L229.731 169.875L223.664 162.207V107.304C225.678 107.142 227.705 107.049 229.731 107.049C231.758 107.049 233.784 107.119 235.799 107.304Z" fill="#94CFD5"/>
<defs>
<filter id="filter0_f_2_450" x="0" y="0" width="460" height="460" filterUnits="userSpaceOnUse" color-interpolation-filters="sRGB">
<feFlood flood-opacity="0" result="BackgroundImageFix"/>
<feBlend mode="normal" in="SourceGraphic" in2="BackgroundImageFix" result="shape"/>
<feGaussianBlur stdDeviation="20" result="effect1_foregroundBlur_2_450"/>
</filter>
<linearGradient id="paint0_linear_2_450" x1="314.553" y1="145.675" x2="136.415" y2="324.863" gradientUnits="userSpaceOnUse">
<stop stop-color="#303030"/>
<stop offset="0.4" stop-color="#303030"/>
<stop offset="1" stop-color="#000604"/>
</linearGradient>
<linearGradient id="paint1_linear_2_450" x1="240.555" y1="219.257" x2="214.413" y2="245.553" gradientUnits="userSpaceOnUse">
<stop offset="0.28" stop-color="#303030"/>
<stop offset="1" stop-color="#000604"/>
</linearGradient>
</defs>
</svg>
