<svg xmlns="http://www.w3.org/2000/svg" width="249" height="121" viewBox="0 0 249 121" fill="none">
  <path fill-rule="evenodd" clip-rule="evenodd" d="M248.557 102.5C248.832 102.542 248.74 102.785 248.832 102.947L238.009 110.05C231.407 109.682 224.802 108.992 218.107 108.627L198.295 107.776C175.869 106.964 153.443 107.572 130.928 108.627L109.052 110.05L86.2137 111.917L61.4499 114.431L35.8607 117.395L15.7289 120.033C14.7194 120.357 13.2065 120.437 12.243 119.951C11.8303 119.669 11.7383 119.222 11.9223 118.815C12.6558 118.003 13.848 118.003 14.9035 117.843L40.1273 114.11L77.7778 109.242L107.266 105.953L133.176 103.519L156.701 101.856L180.868 100.678L200.543 100.312C216.455 100.188 232.963 100.755 248.557 102.5Z" fill="#055E67"/>
  <path d="M207.126 38.464C207.041 38.6347 206.998 38.8907 206.998 39.232C206.998 39.5307 207.062 39.7653 207.19 39.936C207.361 40.1067 207.574 40.192 207.83 40.192C208.342 40.192 208.769 39.9787 209.11 39.552C209.494 39.0827 209.75 38.848 209.878 38.848C210.092 38.848 210.262 38.9973 210.39 39.296C210.518 39.552 210.582 39.872 210.582 40.256C210.625 41.4933 210.22 42.7093 209.366 43.904C208.513 45.056 207.254 46.016 205.59 46.784C203.969 47.5093 202.006 47.872 199.702 47.872C196.886 47.872 194.646 47.232 192.982 45.952C191.318 44.6293 190.465 42.88 190.422 40.704C190.422 39.1253 190.806 37.3547 191.574 35.392L195.094 26.176C195.308 25.6213 195.414 25.1733 195.414 24.832C195.414 24.2773 195.222 23.8507 194.838 23.552C194.497 23.2107 194.07 23.04 193.558 23.04C192.748 23.04 191.916 23.424 191.062 24.192C190.252 24.9173 189.59 26.112 189.078 27.776V27.648L185.046 40.64C184.918 41.152 184.854 41.6 184.854 41.984C184.854 42.5387 184.961 42.9867 185.174 43.328C185.388 43.6267 185.686 43.9253 186.07 44.224C186.369 44.5227 186.582 44.7787 186.71 44.992C186.838 45.1627 186.86 45.3973 186.774 45.696C186.561 46.2507 186.134 46.656 185.494 46.912C184.854 47.168 183.873 47.296 182.55 47.296H167.958C166.849 47.296 166.038 47.1253 165.526 46.784C165.014 46.4 164.844 45.9093 165.014 45.312C165.185 44.8 165.633 44.352 166.358 43.968C166.998 43.6267 167.532 43.2213 167.958 42.752C168.385 42.2827 168.748 41.536 169.046 40.512L178.774 8.576C178.902 8.192 178.966 7.872 178.966 7.616C178.966 7.14667 178.838 6.76267 178.582 6.464C178.369 6.16533 178.07 5.86667 177.686 5.568C177.26 5.22667 176.94 4.928 176.726 4.672C176.556 4.416 176.534 4.07467 176.662 3.648C176.918 2.66667 178.262 1.81333 180.694 1.088C183.126 0.362666 185.665 0 188.31 0C190.785 0 192.598 0.469334 193.75 1.408C194.945 2.34667 195.542 3.62667 195.542 5.248C195.542 6.18667 195.393 7.104 195.094 8L191.638 19.264C193.302 17.088 195.052 15.5733 196.886 14.72C198.764 13.8667 200.79 13.44 202.966 13.44C205.569 13.44 207.66 14.2293 209.238 15.808C210.86 17.3867 211.67 19.4347 211.67 21.952C211.67 23.2747 211.457 24.576 211.03 25.856L207.126 38.464Z" fill="#055E67"/>
  <path d="M156.439 13.1201C159.042 13.1201 161.324 13.5041 163.287 14.2721C165.25 14.9975 166.764 16.0215 167.831 17.3441C168.94 18.6241 169.495 20.0535 169.495 21.6321C169.495 23.3388 168.898 24.7468 167.703 25.8561C166.551 26.9655 164.972 27.5201 162.967 27.5201C160.919 27.5201 159.319 27.0081 158.167 25.9841C157.015 24.9175 156.439 23.4881 156.439 21.6961C156.439 20.8428 156.567 19.9468 156.823 19.0081C155.031 19.4775 153.431 20.4161 152.023 21.8241C150.658 23.1895 149.74 25.0028 149.271 27.2641C149.015 28.5441 148.887 29.6961 148.887 30.7201C148.887 33.0241 149.527 34.7735 150.807 35.9681C152.087 37.1628 153.922 37.7601 156.311 37.7601C157.676 37.7601 158.85 37.6321 159.831 37.3761C160.812 37.0775 161.815 36.6935 162.839 36.2241C163.692 35.7975 164.311 35.5841 164.695 35.5841C164.951 35.5841 165.122 35.6481 165.207 35.7761C165.292 35.8615 165.335 36.0748 165.335 36.4161C165.378 37.9948 164.716 39.6588 163.351 41.4081C162.028 43.1148 160.172 44.5655 157.783 45.7601C155.436 46.9121 152.791 47.4881 149.847 47.4881C146.775 47.4881 144.044 46.9335 141.655 45.8241C139.308 44.6721 137.474 43.0508 136.151 40.9601C134.871 38.8268 134.231 36.3521 134.231 33.5361C134.231 32.2135 134.402 30.7415 134.743 29.1201C135.895 23.8295 138.434 19.8401 142.359 17.1521C146.327 14.4641 151.02 13.1201 156.439 13.1201Z" fill="#055E67"/>
  <path d="M127.01 38.4639C126.925 38.6346 126.882 38.8906 126.882 39.2319C126.882 39.5306 126.946 39.7653 127.074 39.9359C127.245 40.1066 127.458 40.1919 127.714 40.1919C128.226 40.1919 128.653 39.9786 128.994 39.5519C129.378 39.0826 129.634 38.8479 129.762 38.8479C129.976 38.8479 130.146 38.9973 130.274 39.2959C130.402 39.5519 130.466 39.8719 130.466 40.2559C130.509 41.4933 130.104 42.7093 129.25 43.9039C128.397 45.0559 127.138 46.0159 125.474 46.7839C123.853 47.5093 121.89 47.8719 119.586 47.8719C116.77 47.8719 114.53 47.2319 112.866 45.9519C111.202 44.6293 110.349 42.8799 110.306 40.7039C110.306 39.1253 110.69 37.3546 111.458 35.3919L114.978 26.1759C115.192 25.6213 115.298 25.1733 115.298 24.8319C115.298 24.2773 115.106 23.8506 114.722 23.5519C114.381 23.2106 113.954 23.0399 113.442 23.0399C112.504 23.0399 111.608 23.4879 110.754 24.3839C109.901 25.2373 109.282 26.3039 108.898 27.5839L104.93 40.6399C104.76 41.1093 104.674 41.5573 104.674 41.9839C104.674 42.4959 104.781 42.9226 104.994 43.2639C105.208 43.5626 105.506 43.8826 105.89 44.2239C106.189 44.4799 106.402 44.7146 106.53 44.9279C106.658 45.1413 106.68 45.3973 106.594 45.6959C106.424 46.2506 106.018 46.6559 105.378 46.9119C104.738 47.1679 103.736 47.2959 102.37 47.2959H87.7785C86.6691 47.2959 85.8798 47.1253 85.4105 46.7839C84.8985 46.3999 84.7065 45.9093 84.8345 45.3119C85.0051 44.7999 85.4531 44.3519 86.1785 43.9679C86.8185 43.6266 87.3518 43.2213 87.7785 42.7519C88.2051 42.2826 88.5678 41.5359 88.8665 40.5119L94.5625 22.0159C94.6478 21.8026 94.6905 21.5039 94.6905 21.1199C94.6905 20.6506 94.5838 20.2879 94.3705 20.0319C94.1998 19.7759 93.9011 19.4559 93.4745 19.0719C93.0478 18.7306 92.7491 18.4319 92.5785 18.1759C92.4078 17.9199 92.3865 17.5786 92.5145 17.1519C92.7705 16.1706 94.1145 15.3173 96.5465 14.5919C98.9785 13.8239 101.517 13.4399 104.162 13.4399C106.296 13.4399 107.981 14.0373 109.218 15.2319C110.456 16.3839 111.01 18.0053 110.882 20.0959C112.632 17.5786 114.488 15.8506 116.45 14.9119C118.413 13.9306 120.546 13.4399 122.85 13.4399C125.453 13.4399 127.544 14.2293 129.122 15.8079C130.744 17.3866 131.554 19.4346 131.554 21.9519C131.554 23.2746 131.341 24.5759 130.914 25.8559L127.01 38.4639Z" fill="#055E67"/>
  <path d="M81.5354 38.4639C81.4501 38.8053 81.4074 39.0613 81.4074 39.2319C81.4074 39.5306 81.4714 39.7653 81.5994 39.9359C81.7701 40.1066 81.9834 40.1919 82.2394 40.1919C82.7514 40.1919 83.1781 39.9786 83.5194 39.5519C83.9034 39.0826 84.1594 38.8479 84.2874 38.8479C84.5008 38.8479 84.6714 38.9973 84.7994 39.2959C84.9701 39.5519 85.0554 39.8719 85.0554 40.2559C85.0981 41.4506 84.6714 42.6453 83.7754 43.8399C82.8794 44.9919 81.6208 45.9519 79.9994 46.7199C78.3781 47.4879 76.5648 47.8719 74.5594 47.8719C72.0421 47.8719 70.0368 47.3599 68.5434 46.3359C67.0501 45.3119 66.0901 43.9679 65.6634 42.3039C64.1274 44.0106 62.4208 45.3119 60.5434 46.2079C58.7088 47.0613 56.8314 47.4879 54.9114 47.4879C51.9248 47.4879 49.4074 46.7626 47.3594 45.3119C45.3541 43.8186 44.3514 41.7493 44.3514 39.1039C44.3514 37.9093 44.5648 36.6719 44.9914 35.3919L49.0874 22.0159C49.2154 21.6319 49.2794 21.3119 49.2794 21.0559C49.2794 20.5866 49.1728 20.2239 48.9594 19.9679C48.7461 19.6693 48.4261 19.3706 47.9994 19.0719C47.5728 18.7306 47.2741 18.4319 47.1034 18.1759C46.9328 17.9199 46.9114 17.5786 47.0394 17.1519C47.2954 16.1706 48.6394 15.3173 51.0714 14.5919C53.5034 13.8239 56.0421 13.4399 58.6874 13.4399C61.1621 13.4399 62.9754 13.9093 64.1274 14.8479C65.2794 15.7866 65.8554 17.0666 65.8554 18.6879C65.8554 19.6693 65.7061 20.6079 65.4074 21.5039L61.3754 34.8159C61.2048 35.2853 61.1194 35.7333 61.1194 36.1599C61.1194 36.7573 61.2901 37.2053 61.6314 37.5039C61.9728 37.8026 62.4208 37.9519 62.9754 37.9519C63.7861 37.9519 64.4474 37.7173 64.9594 37.2479C65.4714 36.7786 65.9834 35.9893 66.4954 34.8799L70.3994 22.0159C70.5274 21.6319 70.5914 21.3119 70.5914 21.0559C70.5914 20.5866 70.4848 20.2239 70.2714 19.9679C70.0581 19.6693 69.7594 19.3706 69.3754 19.0719C68.9488 18.7306 68.6501 18.4319 68.4794 18.1759C68.3088 17.9199 68.2874 17.5786 68.4154 17.1519C68.6288 16.1706 69.9514 15.3173 72.3834 14.5919C74.8154 13.8239 77.3541 13.4399 79.9994 13.4399C82.4741 13.4399 84.2874 13.9093 85.4394 14.8479C86.6341 15.7866 87.2314 17.0453 87.2314 18.6239C87.2314 19.4346 87.0608 20.3946 86.7194 21.5039L81.5354 38.4639Z" fill="#055E67"/>
  <path d="M38.504 30.7841C39.6986 30.7841 40.5946 31.0401 41.192 31.5521C41.832 32.0215 42.152 32.7041 42.152 33.6001C42.152 33.9841 42.088 34.4108 41.96 34.8801L39.848 42.3681C39.2933 44.2028 38.504 45.4828 37.48 46.2081C36.4986 46.9335 35.0266 47.2961 33.064 47.2961H2.98397C2.08797 47.2961 1.4053 47.1468 0.935969 46.8481C0.423969 46.5494 0.167969 46.1441 0.167969 45.6321C0.167969 45.3761 0.231969 45.0988 0.359969 44.8001C0.487969 44.4588 0.701302 44.1815 0.999969 43.9681C1.29864 43.7121 1.61864 43.4775 1.95997 43.2641C2.64264 42.8375 3.1973 42.4108 3.62397 41.9841C4.05064 41.5148 4.4133 40.7681 4.71197 39.7441L12.52 12.1601C12.6906 11.6055 12.776 11.0721 12.776 10.5601C12.776 10.0908 12.6906 9.70678 12.52 9.40812C12.392 9.06679 12.2 8.68279 11.944 8.25612C11.56 7.70145 11.368 7.25345 11.368 6.91212C11.368 6.78412 11.4106 6.54945 11.496 6.20812C11.6666 5.65345 12.0293 5.26945 12.584 5.05612C13.1813 4.80012 14.0773 4.67212 15.272 4.67212H30.312C31.208 4.67212 31.8906 4.82145 32.36 5.12012C32.872 5.37612 33.128 5.76012 33.128 6.27212C33.128 6.48545 33.064 6.76278 32.936 7.10412C32.808 7.40278 32.616 7.68012 32.36 7.93612C32.1466 8.14945 31.9333 8.32012 31.72 8.44812C31.5493 8.53345 31.4213 8.61878 31.336 8.70412C30.6533 9.08812 30.0986 9.51478 29.672 9.98412C29.2453 10.4535 28.8826 11.1788 28.584 12.1601L20.328 41.1521H24.296C25.2773 41.1521 26.1093 40.9815 26.792 40.6401C27.5173 40.2988 28.264 39.6588 29.032 38.7201L33.448 33.4721C34.2586 32.5335 35.0266 31.8508 35.752 31.4241C36.52 30.9975 37.4373 30.7841 38.504 30.7841Z" fill="#055E67"/>
  <path d="M233.229 66.6641C237.293 66.6641 240.237 67.3201 242.061 68.6321C243.885 69.9121 244.797 71.5601 244.797 73.5761C244.797 74.1841 244.733 74.7441 244.605 75.2561C244.125 77.3681 242.781 78.8881 240.573 79.8161C238.397 80.7121 235.821 81.1601 232.845 81.1601C231.341 81.1601 229.933 81.0641 228.621 80.8721C228.589 82.5361 229.037 83.7041 229.965 84.3761C230.893 85.0481 232.189 85.3841 233.853 85.3841C234.621 85.3841 235.357 85.3041 236.061 85.1441C236.765 84.9521 237.661 84.6801 238.749 84.3281C239.645 84.0081 240.253 83.8481 240.573 83.8481C240.925 83.8481 241.101 84.0561 241.101 84.4721C241.133 85.5921 240.717 86.7761 239.853 88.0241C238.989 89.2401 237.709 90.2801 236.013 91.1441C234.317 92.0081 232.269 92.4401 229.869 92.4401C226.317 92.4401 223.405 91.5441 221.133 89.7521C218.861 87.9601 217.725 85.3521 217.725 81.9281C217.725 80.9681 217.853 79.8481 218.109 78.5681C218.909 74.6321 220.653 71.6721 223.341 69.6881C226.061 67.6721 229.357 66.6641 233.229 66.6641ZM228.957 77.9921C229.085 78.0241 229.261 78.0401 229.485 78.0401C230.829 78.0401 231.853 77.4161 232.557 76.1681C233.261 74.9201 233.597 73.5281 233.565 71.9921C233.533 71.0961 233.277 70.6481 232.797 70.6481C232.445 70.6481 232.029 70.9361 231.549 71.5121C231.069 72.0561 230.589 72.8881 230.109 74.0081C229.661 75.1281 229.277 76.4561 228.957 77.9921Z" fill="black"/>
  <path d="M217.788 67.5279C218.396 67.5279 218.86 67.6559 219.18 67.9119C219.532 68.1679 219.708 68.5199 219.708 68.9679C219.708 69.0959 219.676 69.3199 219.612 69.6399C219.196 71.0479 218.236 71.7519 216.732 71.7519H213.948L210.348 83.6079C210.188 84.0879 210.108 84.5839 210.108 85.0959C210.108 85.6719 210.268 86.0719 210.588 86.2959C210.908 86.5199 211.356 86.6319 211.932 86.6319C212.444 86.6319 213.084 86.5679 213.852 86.4399C214.236 86.3439 214.572 86.2959 214.86 86.2959C215.084 86.2959 215.244 86.3759 215.34 86.5359C215.468 86.6639 215.532 86.8399 215.532 87.0639C215.564 87.7039 215.084 88.4879 214.092 89.4159C213.132 90.3119 211.82 91.0959 210.156 91.7679C208.492 92.4079 206.652 92.7279 204.636 92.7279C202.46 92.7279 200.716 92.2319 199.404 91.2399C198.092 90.2479 197.436 88.8879 197.436 87.1599C197.436 86.3599 197.564 85.5919 197.82 84.8559L200.892 75.3519C201.052 74.8079 201.132 74.3759 201.132 74.0559C201.132 73.4159 200.972 72.8719 200.652 72.4239C200.364 71.9759 199.948 71.5119 199.404 71.0319C198.924 70.5839 198.588 70.2159 198.396 69.9279C198.204 69.6079 198.156 69.2399 198.252 68.8239C198.38 68.4079 198.652 68.0879 199.068 67.8639C199.484 67.6399 200.14 67.5279 201.036 67.5279H203.724L206.748 64.5039C207.804 63.4479 208.764 62.7119 209.628 62.2959C210.524 61.8799 211.676 61.6719 213.084 61.6719C215.1 61.6719 216.108 62.4399 216.108 63.9759C216.108 64.4559 216.044 64.9039 215.916 65.3199L215.244 67.5279H217.788Z" fill="black"/>
  <path d="M199.554 67.5279C200.162 67.5279 200.626 67.6559 200.946 67.9119C201.298 68.1679 201.474 68.5199 201.474 68.9679C201.474 69.0959 201.442 69.3199 201.378 69.6399C200.962 71.0479 200.002 71.7519 198.498 71.7519H195.714L192.114 83.6079C191.954 84.0879 191.874 84.5839 191.874 85.0959C191.874 85.6719 192.034 86.0719 192.354 86.2959C192.674 86.5199 193.122 86.6319 193.698 86.6319C194.21 86.6319 194.85 86.5679 195.618 86.4399C196.002 86.3439 196.338 86.2959 196.626 86.2959C196.85 86.2959 197.01 86.3759 197.106 86.5359C197.234 86.6639 197.298 86.8399 197.298 87.0639C197.33 87.7039 196.85 88.4879 195.858 89.4159C194.898 90.3119 193.586 91.0959 191.922 91.7679C190.258 92.4079 188.418 92.7279 186.402 92.7279C184.226 92.7279 182.482 92.2319 181.17 91.2399C179.858 90.2479 179.202 88.8879 179.202 87.1599C179.202 86.3599 179.33 85.5919 179.586 84.8559L182.658 75.3519C182.818 74.8079 182.898 74.3759 182.898 74.0559C182.898 73.4159 182.738 72.8719 182.418 72.4239C182.13 71.9759 181.714 71.5119 181.17 71.0319C180.69 70.5839 180.354 70.2159 180.162 69.9279C179.97 69.6079 179.922 69.2399 180.018 68.8239C180.146 68.4079 180.418 68.0879 180.834 67.8639C181.25 67.6399 181.906 67.5279 182.802 67.5279H185.49L188.514 64.5039C189.57 63.4479 190.53 62.7119 191.394 62.2959C192.29 61.8799 193.442 61.6719 194.85 61.6719C196.866 61.6719 197.874 62.4399 197.874 63.9759C197.874 64.4559 197.81 64.9039 197.682 65.3199L197.01 67.5279H199.554Z" fill="black"/>
  <path d="M167.51 66.6641C171.574 66.6641 174.518 67.3201 176.342 68.6321C178.166 69.9121 179.078 71.5601 179.078 73.5761C179.078 74.1841 179.014 74.7441 178.886 75.2561C178.406 77.3681 177.062 78.8881 174.854 79.8161C172.678 80.7121 170.102 81.1601 167.126 81.1601C165.622 81.1601 164.214 81.0641 162.902 80.8721C162.87 82.5361 163.318 83.7041 164.246 84.3761C165.174 85.0481 166.47 85.3841 168.134 85.3841C168.902 85.3841 169.638 85.3041 170.342 85.1441C171.046 84.9521 171.942 84.6801 173.03 84.3281C173.926 84.0081 174.534 83.8481 174.854 83.8481C175.206 83.8481 175.382 84.0561 175.382 84.4721C175.414 85.5921 174.998 86.7761 174.134 88.0241C173.27 89.2401 171.99 90.2801 170.294 91.1441C168.598 92.0081 166.55 92.4401 164.15 92.4401C160.598 92.4401 157.686 91.5441 155.414 89.7521C153.142 87.9601 152.006 85.3521 152.006 81.9281C152.006 80.9681 152.134 79.8481 152.39 78.5681C153.19 74.6321 154.934 71.6721 157.622 69.6881C160.342 67.6721 163.638 66.6641 167.51 66.6641ZM163.238 77.9921C163.366 78.0241 163.542 78.0401 163.766 78.0401C165.11 78.0401 166.134 77.4161 166.838 76.1681C167.542 74.9201 167.878 73.5281 167.846 71.9921C167.814 71.0961 167.558 70.6481 167.078 70.6481C166.726 70.6481 166.31 70.9361 165.83 71.5121C165.35 72.0561 164.87 72.8881 164.39 74.0081C163.942 75.1281 163.558 76.4561 163.238 77.9921Z" fill="black"/>
  <path d="M148.972 56.824C150.828 56.824 152.188 57.176 153.052 57.88C153.948 58.584 154.396 59.544 154.396 60.76C154.396 61.464 154.284 62.152 154.06 62.824L146.524 87.304C146.428 87.688 146.38 88.024 146.38 88.312C146.38 88.728 146.46 89.064 146.62 89.32C146.78 89.544 147.004 89.768 147.292 89.992C147.516 90.216 147.676 90.408 147.772 90.568C147.868 90.696 147.884 90.872 147.82 91.096C147.66 91.512 147.34 91.816 146.86 92.008C146.38 92.2 145.644 92.296 144.652 92.296H133.708C132.876 92.296 132.268 92.168 131.884 91.912C131.5 91.624 131.372 91.256 131.5 90.808C131.628 90.424 131.964 90.088 132.508 89.8C132.988 89.544 133.388 89.24 133.708 88.888C134.028 88.536 134.3 87.976 134.524 87.208L141.82 63.256C141.916 62.968 141.964 62.728 141.964 62.536C141.964 62.184 141.868 61.896 141.676 61.672C141.516 61.448 141.292 61.224 141.004 61C140.684 60.744 140.444 60.52 140.284 60.328C140.156 60.136 140.14 59.88 140.236 59.56C140.428 58.824 141.436 58.184 143.26 57.64C145.084 57.096 146.988 56.824 148.972 56.824Z" fill="black"/>
  <path d="M129.266 85.6721C129.202 85.9281 129.17 86.1201 129.17 86.2481C129.17 86.4721 129.218 86.6481 129.314 86.7761C129.442 86.9041 129.602 86.9681 129.794 86.9681C130.178 86.9681 130.498 86.8081 130.754 86.4881C131.042 86.1361 131.234 85.9601 131.33 85.9601C131.49 85.9601 131.618 86.0721 131.714 86.2961C131.842 86.4881 131.906 86.7281 131.906 87.0161C131.938 87.9121 131.618 88.8081 130.946 89.7041C130.274 90.5681 129.33 91.2881 128.114 91.8641C126.898 92.4401 125.538 92.7281 124.034 92.7281C122.146 92.7281 120.642 92.3441 119.522 91.5761C118.402 90.8081 117.682 89.8001 117.362 88.5521C116.21 89.8321 114.93 90.8081 113.522 91.4801C112.146 92.1201 110.738 92.4401 109.298 92.4401C107.058 92.4401 105.17 91.8961 103.634 90.8081C102.13 89.6881 101.378 88.1361 101.378 86.1521C101.378 85.2561 101.538 84.3281 101.858 83.3681L104.93 73.3361C105.026 73.0481 105.074 72.8081 105.074 72.6161C105.074 72.2641 104.994 71.9921 104.834 71.8001C104.674 71.5761 104.434 71.3521 104.114 71.1281C103.794 70.8721 103.57 70.6481 103.442 70.4561C103.314 70.2641 103.298 70.0081 103.394 69.6881C103.586 68.9521 104.594 68.3121 106.418 67.7681C108.242 67.1921 110.146 66.9041 112.13 66.9041C113.986 66.9041 115.346 67.2561 116.21 67.9601C117.074 68.6641 117.506 69.6241 117.506 70.8401C117.506 71.5761 117.394 72.2801 117.17 72.9521L114.146 82.9361C114.018 83.2881 113.954 83.6241 113.954 83.9441C113.954 84.3921 114.082 84.7281 114.338 84.9521C114.594 85.1761 114.93 85.2881 115.346 85.2881C115.954 85.2881 116.45 85.1121 116.834 84.7601C117.218 84.4081 117.602 83.8161 117.986 82.9841L120.914 73.3361C121.01 73.0481 121.058 72.8081 121.058 72.6161C121.058 72.2641 120.978 71.9921 120.818 71.8001C120.658 71.5761 120.434 71.3521 120.146 71.1281C119.826 70.8721 119.602 70.6481 119.474 70.4561C119.346 70.2641 119.33 70.0081 119.426 69.6881C119.586 68.9521 120.578 68.3121 122.402 67.7681C124.226 67.1921 126.13 66.9041 128.114 66.9041C129.97 66.9041 131.33 67.2561 132.194 67.9601C133.09 68.6641 133.538 69.6081 133.538 70.7921C133.538 71.4001 133.41 72.1201 133.154 72.9521L129.266 85.6721Z" fill="black"/>
  <path d="M69.5039 70.0719C68.9919 71.9279 68.0319 73.3839 66.6239 74.4399C65.2159 75.4639 63.4399 76.1039 61.2959 76.3599C62.8319 76.4879 63.9839 76.9359 64.7519 77.7039C65.5199 78.4719 65.9039 79.4799 65.9039 80.7279C65.9039 81.2079 65.8239 81.7999 65.6639 82.5039L65.1359 84.8559C65.0719 85.1759 65.0399 85.3999 65.0399 85.5279C65.0399 85.9439 65.1359 86.2639 65.3279 86.4879C65.5199 86.6799 65.7919 86.7759 66.1439 86.7759C66.8159 86.7759 67.2959 86.8719 67.5839 87.0639C67.9039 87.2559 68.0159 87.6079 67.9199 88.1199C67.7919 88.8559 67.4079 89.5759 66.7679 90.2799C66.1279 90.9839 65.2159 91.5759 64.0319 92.0559C62.8799 92.5039 61.4719 92.7279 59.8079 92.7279C57.6959 92.7279 56.0159 92.2639 54.7679 91.3359C53.5199 90.3759 52.8959 89.0159 52.8959 87.2559C52.8959 86.5839 52.9919 85.8639 53.1839 85.0959L53.9519 82.0239C54.0799 81.6079 54.1439 81.1759 54.1439 80.7279C54.1439 79.9919 53.8879 79.4639 53.3759 79.1439C52.8959 78.8239 52.1119 78.6639 51.0239 78.6639H49.1999L46.9919 86.6319C46.9279 86.8239 46.8959 87.0639 46.8959 87.3519C46.8959 87.7999 47.0079 88.1839 47.2319 88.5039C47.4559 88.8239 47.7599 89.1599 48.1439 89.5119C48.4319 89.7359 48.6559 89.9599 48.8159 90.1839C48.9759 90.3759 49.0559 90.5839 49.0559 90.8079C49.0559 91.3519 48.7999 91.7359 48.2879 91.9599C47.7759 92.1839 47.0239 92.2959 46.0319 92.2959H33.9839C33.1519 92.2959 32.5279 92.1519 32.1119 91.8639C31.6959 91.5439 31.5519 91.1119 31.6799 90.5679C31.7439 90.2799 31.8719 90.0559 32.0639 89.8959C32.2239 89.7039 32.4799 89.4959 32.8319 89.2719C33.3759 88.9519 33.8079 88.6159 34.1279 88.2639C34.4479 87.9119 34.7039 87.3679 34.8959 86.6319L40.7519 65.9439C40.8799 65.5279 40.9439 65.1279 40.9439 64.7439C40.9439 64.3919 40.8799 64.1039 40.7519 63.8799C40.6559 63.6239 40.5119 63.3359 40.3199 63.0159C40.0319 62.5999 39.8879 62.2639 39.8879 62.0079C39.8879 61.9119 39.9199 61.7359 39.9839 61.4799C40.1119 61.0639 40.3839 60.7759 40.7999 60.6159C41.2479 60.4239 41.9199 60.3279 42.8159 60.3279H58.8959C61.1039 60.3279 63.0239 60.6639 64.6559 61.3359C66.3199 62.0079 67.5839 62.9359 68.4479 64.1199C69.3439 65.2719 69.7919 66.5839 69.7919 68.0559C69.7919 68.7279 69.6959 69.3999 69.5039 70.0719ZM57.2159 69.5919C57.3759 68.8559 57.4559 68.2959 57.4559 67.9119C57.4559 66.2159 56.5279 65.3679 54.6719 65.3679H52.6559L50.5439 73.8639H52.5599C53.8079 73.8639 54.7839 73.5599 55.4879 72.9519C56.2239 72.3439 56.7999 71.2239 57.2159 69.5919Z" fill="black"/>
  <path style="mix-blend-mode:multiply" d="M84.832 97.8978C93.1163 97.8978 99.832 92.3334 99.832 85.4694C99.832 78.6054 93.1163 73.041 84.832 73.041C76.5478 73.041 69.832 78.6054 69.832 85.4694C69.832 92.3334 76.5478 97.8978 84.832 97.8978Z" fill="url(#paint0_radial_17_493)"/>
  <path d="M85.3533 92.8892C92.7629 92.8892 98.7697 87.1599 98.7697 80.0925C98.7697 73.0251 92.7629 67.2959 85.3533 67.2959C77.9437 67.2959 71.937 73.0251 71.937 80.0925C71.937 87.1599 77.9437 92.8892 85.3533 92.8892Z" fill="url(#paint1_linear_17_493)"/>
  <path d="M93.3777 87.7462C94.4361 86.7367 95.2411 85.5769 95.7939 84.3395L85.3531 80.0923L89.806 90.0508C91.1034 89.5235 92.3194 88.7557 93.3777 87.7462Z" fill="#B7B7B7"/>
  <path d="M77.3286 87.7462C78.387 88.7557 79.603 89.5235 80.9003 90.0508L85.3532 80.0923L74.9124 84.3395C75.4652 85.5769 76.2702 86.7367 77.3286 87.7462Z" fill="#757575"/>
  <path d="M77.3286 72.4386C76.2702 73.4481 75.4652 74.6079 74.9124 75.8454L85.3532 80.0925L80.9003 70.134C79.603 70.6613 78.387 71.4291 77.3286 72.4386Z" fill="#8F8F8F"/>
  <path d="M93.3777 72.4386C92.3194 71.4291 91.1034 70.6613 89.806 70.134L85.3531 80.0925L95.7939 75.8454C95.2411 74.6079 94.4361 73.4481 93.3777 72.4386Z" fill="#B7B7B7"/>
  <path d="M95.576 84.7992C96.2983 83.3763 96.7027 81.7794 96.7027 80.0923C96.7027 78.4052 96.2983 76.8083 95.576 75.3855C95.6535 75.537 95.7257 75.6911 95.7953 75.8452L85.3546 80.0923L95.7953 84.3395C95.7257 84.4936 95.6535 84.6476 95.576 84.7992Z" fill="#757575"/>
  <path d="M75.1304 75.3855C74.4082 76.8083 74.0037 78.4052 74.0037 80.0923C74.0037 81.7794 74.4082 83.3763 75.1304 84.7992C75.0529 84.6476 74.9807 84.4936 74.9111 84.3395L85.3519 80.0923L74.9124 75.8452C74.982 75.6911 75.0542 75.537 75.1317 75.3855H75.1304Z" fill="#B7B7B7"/>
  <path d="M90.2878 70.342C88.7961 69.6531 87.1219 69.2673 85.3531 69.2673C83.5843 69.2673 81.91 69.6531 80.4183 70.342C80.5772 70.2693 80.7387 70.1992 80.9002 70.1328L85.3531 80.0913L89.8059 70.1341C89.9674 70.2004 90.1289 70.2693 90.2878 70.3432V70.342Z" fill="#666666"/>
  <path d="M89.8059 90.0508L85.3531 80.0923L80.9002 90.0508C80.7387 89.9844 80.5772 89.9155 80.4183 89.8416C81.91 90.5305 83.5843 90.9163 85.3531 90.9163C87.1219 90.9163 88.7961 90.5305 90.2878 89.8416C90.1289 89.9155 89.9674 89.9844 89.8059 90.0508Z" fill="#8F8F8F"/>
  <g style="mix-blend-mode:overlay">
    <path d="M85.3532 70.5686L87.2638 75.6925L92.4139 73.3579L89.9662 78.2701L95.3383 80.0925L89.9662 81.9149L92.4139 86.8271L87.2638 84.4925L85.3532 89.6164L83.4425 84.4925L78.2924 86.8271L80.7401 81.9149L75.368 80.0925L80.7401 78.2701L78.2924 73.3579L83.4425 75.6925L85.3532 70.5686Z" fill="#666666"/>
  </g>
  <path d="M86.4247 80.9576C86.9249 80.3936 86.8511 79.5496 86.2597 79.0724C85.6684 78.5953 84.7835 78.6657 84.2833 79.2297C83.783 79.7938 83.8569 80.6378 84.4482 81.1149C85.0395 81.592 85.9244 81.5216 86.4247 80.9576Z" fill="url(#paint2_linear_17_493)"/>
  <path d="M86.0059 67.4304V73.0963L85.3533 73.8876L84.7007 73.0963V67.4304C84.9174 67.4136 85.1353 67.4041 85.3533 67.4041C85.5713 67.4041 85.7893 67.4112 86.0059 67.4304Z" fill="#303030"/>
  <defs>
    <radialGradient id="paint0_radial_17_493" cx="0" cy="0" r="1" gradientUnits="userSpaceOnUse" gradientTransform="translate(84.8416 85.4694) scale(14.9863 12.4296)">
      <stop offset="0.63" stop-color="#757575"/>
      <stop offset="0.67" stop-color="#8F8F8F"/>
      <stop offset="0.74" stop-color="#B7B7B7"/>
      <stop offset="0.81" stop-color="#D6D6D6"/>
      <stop offset="0.88" stop-color="#ECECEC"/>
      <stop offset="0.94" stop-color="#FAFAFA"/>
      <stop offset="1" stop-color="white"/>
    </radialGradient>
    <linearGradient id="paint1_linear_17_493" x1="94.477" y1="71.3903" x2="76.1136" y2="90.643" gradientUnits="userSpaceOnUse">
      <stop stop-color="#000604"/>
      <stop offset="0.4" stop-color="#303030"/>
      <stop offset="1" stop-color="#000604"/>
    </linearGradient>
    <linearGradient id="paint2_linear_17_493" x1="86.5176" y1="78.9838" x2="83.8228" y2="81.8091" gradientUnits="userSpaceOnUse">
      <stop offset="0.28" stop-color="#303030"/>
      <stop offset="1" stop-color="#000604"/>
    </linearGradient>
  </defs>
</svg>