<svg width="452" height="176" viewBox="0 0 452 176" fill="none" xmlns="http://www.w3.org/2000/svg">
<path d="M288.891 84.8721C288.038 85.1281 286.672 85.3841 284.795 85.6401C283.003 85.8961 281.126 86.0241 279.163 86.0241C277.286 86.0241 275.579 85.8961 274.043 85.6401C272.592 85.3841 271.355 84.8721 270.331 84.1041C269.307 83.3361 268.496 82.3121 267.899 81.0321C267.387 79.6668 267.131 77.9174 267.131 75.7841V47.3681C267.131 43.8694 266.235 41.4374 264.443 40.0721C262.736 38.6214 260.603 37.8961 258.043 37.8961C256.336 37.8961 254.715 38.1094 253.179 38.5361C251.643 38.9628 250.406 39.4748 249.467 40.0721V84.8721C248.614 85.1281 247.248 85.3841 245.371 85.6401C243.579 85.8961 241.702 86.0241 239.739 86.0241C237.862 86.0241 236.155 85.8961 234.619 85.6401C233.168 85.3841 231.931 84.8721 230.907 84.1041C229.883 83.3361 229.072 82.3121 228.475 81.0321C227.963 79.6668 227.707 77.9174 227.707 75.7841V1.54409C228.646 1.37342 230.011 1.16009 231.803 0.904091C233.68 0.562757 235.558 0.39209 237.435 0.39209C239.312 0.39209 240.976 0.520088 242.427 0.776085C243.963 1.03209 245.243 1.54409 246.267 2.31209C247.291 3.08009 248.059 4.14675 248.571 5.51208C249.168 6.79209 249.467 8.49876 249.467 10.6321V23.1761C250.576 22.7494 252.24 22.2801 254.459 21.7681C256.763 21.1708 259.28 20.8721 262.011 20.8721C270.459 20.8721 277.03 23.0054 281.723 27.2721C286.502 31.4534 288.891 37.7254 288.891 46.0881V84.8721Z" fill="#055E67"/>
<path d="M211.418 38.0241C209.285 38.0241 207.237 38.3654 205.274 39.0481C203.397 39.7307 201.733 40.7547 200.282 42.1201C198.917 43.4001 197.807 45.0214 196.954 46.9841C196.101 48.9467 195.674 51.2507 195.674 53.8961C195.674 59.1867 197.167 63.1547 200.154 65.8001C203.226 68.4454 206.938 69.7681 211.29 69.7681C213.85 69.7681 216.069 69.4694 217.946 68.8721C219.823 68.2747 221.487 67.6347 222.938 66.9521C224.645 68.1467 225.925 69.4694 226.778 70.9201C227.631 72.2854 228.058 73.9494 228.058 75.9121C228.058 79.4107 226.394 82.1414 223.066 84.1041C219.738 85.9814 215.13 86.9201 209.242 86.9201C203.866 86.9201 199.002 86.1521 194.65 84.6161C190.298 82.9947 186.543 80.7761 183.386 77.9601C180.314 75.0587 177.925 71.6027 176.218 67.5921C174.511 63.5814 173.658 59.1441 173.658 54.2801C173.658 48.6481 174.554 43.7414 176.346 39.5601C178.223 35.2934 180.741 31.7947 183.898 29.0641C187.055 26.3334 190.682 24.2854 194.778 22.9201C198.959 21.5547 203.354 20.8721 207.962 20.8721C214.106 20.8721 218.842 21.9814 222.17 24.2001C225.498 26.4187 227.162 29.2774 227.162 32.7761C227.162 34.3974 226.778 35.9334 226.01 37.3841C225.242 38.7494 224.346 39.9441 223.322 40.9681C221.871 40.2854 220.122 39.6454 218.074 39.0481C216.026 38.3654 213.807 38.0241 211.418 38.0241Z" fill="#055E67"/>
<path d="M152.665 45.5761C152.665 42.9307 151.897 41.0107 150.361 39.8161C148.91 38.5361 146.905 37.8961 144.345 37.8961C142.638 37.8961 140.932 38.1094 139.225 38.5361C137.604 38.9627 136.196 39.6027 135.001 40.4561V84.8721C134.148 85.1281 132.782 85.3841 130.905 85.6401C129.113 85.8961 127.236 86.0241 125.273 86.0241C123.396 86.0241 121.689 85.8961 120.153 85.6401C118.702 85.3841 117.465 84.8721 116.441 84.1041C115.417 83.3361 114.606 82.3121 114.009 81.0321C113.497 79.6667 113.241 77.9174 113.241 75.7841V37.3841C113.241 35.0801 113.71 33.2027 114.649 31.7521C115.673 30.3014 117.038 28.9787 118.745 27.7841C121.646 25.7361 125.273 24.0721 129.625 22.7921C134.062 21.5121 138.969 20.8721 144.345 20.8721C153.988 20.8721 161.412 23.0054 166.617 27.2721C171.822 31.4534 174.425 37.2987 174.425 44.8081V84.8721C173.572 85.1281 172.206 85.3841 170.329 85.6401C168.537 85.8961 166.66 86.0241 164.697 86.0241C162.82 86.0241 161.113 85.8961 159.577 85.6401C158.126 85.3841 156.889 84.8721 155.865 84.1041C154.841 83.3361 154.03 82.3121 153.433 81.0321C152.921 79.6667 152.665 77.9174 152.665 75.7841V45.5761Z" fill="#055E67"/>
<path d="M50.261 23.6881C51.1143 23.4321 52.437 23.1761 54.229 22.9201C56.1063 22.6641 58.0263 22.5361 59.989 22.5361C61.8663 22.5361 63.5303 22.6641 64.981 22.9201C66.517 23.1761 67.797 23.6881 68.821 24.4561C69.845 25.2241 70.613 26.2908 71.125 27.6561C71.7223 28.9361 72.021 30.6428 72.021 32.7761V60.2961C72.021 63.7948 72.8743 66.3121 74.581 67.8481C76.2877 69.2988 78.7623 70.0241 82.005 70.0241C83.9677 70.0241 85.5463 69.8535 86.741 69.5121C88.021 69.1708 89.0023 68.8295 89.685 68.4881V23.6881C90.5383 23.4321 91.861 23.1761 93.653 22.9201C95.5303 22.6641 97.4503 22.5361 99.413 22.5361C101.29 22.5361 102.954 22.6641 104.405 22.9201C105.941 23.1761 107.221 23.6881 108.245 24.4561C109.269 25.2241 110.037 26.2908 110.549 27.6561C111.146 28.9361 111.445 30.6428 111.445 32.7761V71.6881C111.445 75.9548 109.653 79.1548 106.069 81.2881C103.082 83.1655 99.4983 84.5735 95.317 85.5121C91.221 86.5361 86.741 87.0481 81.877 87.0481C77.269 87.0481 73.0023 86.5361 69.077 85.5121C65.237 84.4881 61.909 82.9095 59.093 80.7761C56.277 78.6428 54.101 75.9121 52.565 72.5841C51.029 69.1708 50.261 65.0748 50.261 60.2961V23.6881Z" fill="#055E67"/>
<path d="M12.2239 85.3839C8.55461 85.3839 5.65328 84.3172 3.51995 82.1839C1.38661 80.0505 0.319946 77.1492 0.319946 73.4799V7.30386C1.25861 7.13319 2.75195 6.91986 4.79995 6.66386C6.84795 6.32252 8.81061 6.15186 10.6879 6.15186C12.6506 6.15186 14.3573 6.32252 15.8079 6.66386C17.3439 6.91986 18.6239 7.43186 19.6479 8.19986C20.6719 8.96786 21.4399 10.0345 21.9519 11.3999C22.4639 12.7652 22.7199 14.5572 22.7199 16.7759V67.3359H52.0319C52.6293 68.2745 53.1839 69.5545 53.6959 71.1759C54.208 72.7119 54.464 74.3332 54.464 76.0399C54.464 79.4532 53.7386 81.8852 52.2879 83.3359C50.8373 84.7012 48.9173 85.3839 46.528 85.3839H12.2239Z" fill="#055E67"/>
<path d="M424.412 175.048C419.377 175.048 414.684 174.365 410.332 173C406.065 171.549 402.311 169.416 399.068 166.6C395.911 163.784 393.393 160.243 391.516 155.976C389.724 151.709 388.828 146.717 388.828 141C388.828 135.368 389.724 130.547 391.516 126.536C393.393 122.44 395.825 119.112 398.812 116.552C401.799 113.907 405.212 111.987 409.052 110.792C412.892 109.512 416.817 108.872 420.828 108.872C425.351 108.872 429.447 109.555 433.116 110.92C436.871 112.285 440.071 114.163 442.716 116.552C445.447 118.941 447.537 121.8 448.988 125.128C450.524 128.456 451.292 132.083 451.292 136.008C451.292 138.909 450.481 141.128 448.86 142.664C447.239 144.2 444.977 145.181 442.076 145.608L410.46 150.344C411.399 153.16 413.319 155.293 416.22 156.744C419.121 158.109 422.449 158.792 426.204 158.792C429.703 158.792 432.988 158.365 436.06 157.512C439.217 156.573 441.777 155.507 443.74 154.312C445.105 155.165 446.257 156.36 447.196 157.896C448.135 159.432 448.604 161.053 448.604 162.76C448.604 166.6 446.812 169.459 443.228 171.336C440.497 172.787 437.425 173.768 434.012 174.28C430.599 174.792 427.399 175.048 424.412 175.048ZM420.828 124.744C418.78 124.744 416.988 125.085 415.452 125.768C414.001 126.451 412.807 127.347 411.868 128.456C410.929 129.48 410.204 130.675 409.692 132.04C409.265 133.32 409.009 134.643 408.924 136.008L430.812 132.424C430.556 130.717 429.617 129.011 427.996 127.304C426.375 125.597 423.985 124.744 420.828 124.744Z" fill="#055E67"/>
<path d="M374.296 151.624C374.296 153.843 374.979 155.422 376.344 156.36C377.795 157.299 379.8 157.768 382.36 157.768C383.64 157.768 384.963 157.683 386.328 157.512C387.693 157.256 388.888 156.958 389.912 156.616C390.68 157.555 391.32 158.622 391.832 159.816C392.429 160.926 392.728 162.291 392.728 163.912C392.728 167.155 391.491 169.8 389.016 171.848C386.627 173.896 382.36 174.92 376.216 174.92C368.707 174.92 362.904 173.214 358.808 169.8C354.797 166.387 352.792 160.84 352.792 153.16V98.3762C353.731 98.1202 355.053 97.8642 356.76 97.6082C358.552 97.2669 360.429 97.0962 362.392 97.0962C366.147 97.0962 369.048 97.7789 371.096 99.1442C373.229 100.424 374.296 103.198 374.296 107.464V115.656H391.064C391.576 116.595 392.045 117.79 392.472 119.24C392.984 120.606 393.24 122.142 393.24 123.848C393.24 126.835 392.557 129.011 391.192 130.376C389.912 131.656 388.163 132.296 385.944 132.296H374.296V151.624Z" fill="#055E67"/>
<path d="M334.566 151.624C334.566 153.843 335.249 155.422 336.614 156.36C338.065 157.299 340.07 157.768 342.63 157.768C343.91 157.768 345.233 157.683 346.598 157.512C347.963 157.256 349.158 156.958 350.182 156.616C350.95 157.555 351.59 158.622 352.102 159.816C352.699 160.926 352.998 162.291 352.998 163.912C352.998 167.155 351.761 169.8 349.286 171.848C346.897 173.896 342.63 174.92 336.486 174.92C328.977 174.92 323.174 173.214 319.078 169.8C315.067 166.387 313.062 160.84 313.062 153.16V98.3762C314.001 98.1202 315.323 97.8642 317.03 97.6082C318.822 97.2669 320.699 97.0962 322.662 97.0962C326.417 97.0962 329.318 97.7789 331.366 99.1442C333.499 100.424 334.566 103.198 334.566 107.464V115.656H351.334C351.846 116.595 352.315 117.79 352.742 119.24C353.254 120.606 353.51 122.142 353.51 123.848C353.51 126.835 352.827 129.011 351.462 130.376C350.182 131.656 348.433 132.296 346.214 132.296H334.566V151.624Z" fill="#055E67"/>
<path d="M286.972 175.048C281.937 175.048 277.244 174.365 272.892 173C268.625 171.549 264.871 169.416 261.628 166.6C258.471 163.784 255.953 160.243 254.076 155.976C252.284 151.709 251.388 146.717 251.388 141C251.388 135.368 252.284 130.547 254.076 126.536C255.953 122.44 258.385 119.112 261.372 116.552C264.359 113.907 267.772 111.987 271.612 110.792C275.452 109.512 279.377 108.872 283.388 108.872C287.911 108.872 292.007 109.555 295.676 110.92C299.431 112.285 302.631 114.163 305.276 116.552C308.007 118.941 310.097 121.8 311.548 125.128C313.084 128.456 313.852 132.083 313.852 136.008C313.852 138.909 313.041 141.128 311.42 142.664C309.799 144.2 307.537 145.181 304.636 145.608L273.02 150.344C273.959 153.16 275.879 155.293 278.78 156.744C281.681 158.109 285.009 158.792 288.764 158.792C292.263 158.792 295.548 158.365 298.62 157.512C301.777 156.573 304.337 155.507 306.3 154.312C307.665 155.165 308.817 156.36 309.756 157.896C310.695 159.432 311.164 161.053 311.164 162.76C311.164 166.6 309.372 169.459 305.788 171.336C303.057 172.787 299.985 173.768 296.572 174.28C293.159 174.792 289.959 175.048 286.972 175.048ZM283.388 124.744C281.34 124.744 279.548 125.085 278.012 125.768C276.561 126.451 275.367 127.347 274.428 128.456C273.489 129.48 272.764 130.675 272.252 132.04C271.825 133.32 271.569 134.643 271.484 136.008L293.372 132.424C293.116 130.717 292.177 129.011 290.556 127.304C288.935 125.597 286.545 124.744 283.388 124.744Z" fill="#055E67"/>
<path d="M251.865 172.872C250.926 173.043 249.518 173.256 247.641 173.512C245.849 173.853 244.014 174.024 242.137 174.024C240.26 174.024 238.553 173.896 237.017 173.64C235.566 173.384 234.329 172.872 233.305 172.104C232.281 171.336 231.47 170.312 230.873 169.032C230.361 167.667 230.105 165.917 230.105 163.784V89.5441C231.044 89.3734 232.409 89.1601 234.201 88.9041C236.078 88.5628 237.956 88.3921 239.833 88.3921C241.71 88.3921 243.374 88.5201 244.825 88.7761C246.361 89.0321 247.641 89.5441 248.665 90.3121C249.689 91.0801 250.457 92.1468 250.969 93.5121C251.566 94.7921 251.865 96.4988 251.865 98.6321V172.872Z" fill="#055E67"/>
<path d="M166.741 111.688C167.594 111.432 168.917 111.176 170.709 110.92C172.586 110.664 174.506 110.536 176.469 110.536C178.346 110.536 180.01 110.664 181.461 110.92C182.997 111.176 184.277 111.688 185.301 112.456C186.325 113.224 187.093 114.291 187.605 115.656C188.202 116.936 188.501 118.643 188.501 120.776V148.296C188.501 151.795 189.354 154.312 191.061 155.848C192.768 157.299 195.242 158.024 198.485 158.024C200.448 158.024 202.026 157.853 203.221 157.512C204.501 157.171 205.482 156.829 206.165 156.488V111.688C207.018 111.432 208.341 111.176 210.133 110.92C212.01 110.664 213.93 110.536 215.893 110.536C217.77 110.536 219.434 110.664 220.885 110.92C222.421 111.176 223.701 111.688 224.725 112.456C225.749 113.224 226.517 114.291 227.029 115.656C227.626 116.936 227.925 118.643 227.925 120.776V159.688C227.925 163.955 226.133 167.155 222.549 169.288C219.562 171.165 215.978 172.573 211.797 173.512C207.701 174.536 203.221 175.048 198.357 175.048C193.749 175.048 189.482 174.536 185.557 173.512C181.717 172.488 178.389 170.909 175.573 168.776C172.757 166.643 170.581 163.912 169.045 160.584C167.509 157.171 166.741 153.075 166.741 148.296V111.688Z" fill="#055E67"/>
<path d="M167.645 141.896C167.645 147.187 166.834 151.923 165.213 156.104C163.592 160.2 161.288 163.656 158.301 166.472C155.4 169.288 151.901 171.421 147.805 172.872C143.709 174.323 139.144 175.048 134.109 175.048C129.074 175.048 124.509 174.28 120.413 172.744C116.317 171.208 112.776 169.032 109.789 166.216C106.888 163.315 104.626 159.816 103.005 155.72C101.384 151.624 100.573 147.016 100.573 141.896C100.573 136.861 101.384 132.296 103.005 128.2C104.626 124.104 106.888 120.648 109.789 117.832C112.776 114.931 116.317 112.712 120.413 111.176C124.509 109.64 129.074 108.872 134.109 108.872C139.144 108.872 143.709 109.683 147.805 111.304C151.901 112.84 155.4 115.059 158.301 117.96C161.288 120.776 163.592 124.232 165.213 128.328C166.834 132.424 167.645 136.947 167.645 141.896ZM122.845 141.896C122.845 147.101 123.826 151.112 125.789 153.928C127.837 156.659 130.653 158.024 134.237 158.024C137.821 158.024 140.552 156.616 142.429 153.8C144.392 150.984 145.373 147.016 145.373 141.896C145.373 136.776 144.392 132.851 142.429 130.12C140.466 127.304 137.693 125.896 134.109 125.896C130.525 125.896 127.752 127.304 125.789 130.12C123.826 132.851 122.845 136.776 122.845 141.896Z" fill="#055E67"/>
<path d="M62.5919 147.912V172.488C61.6533 172.744 60.1599 173 58.1119 173.256C56.1493 173.512 54.1866 173.64 52.2239 173.64C50.2613 173.64 48.5119 173.469 46.9759 173.128C45.5253 172.872 44.2879 172.36 43.2639 171.592C42.3253 170.824 41.5999 169.757 41.0879 168.392C40.5759 167.027 40.3199 165.235 40.3199 163.016V102.728C40.3199 100.936 40.7893 99.5705 41.7279 98.6319C42.7519 97.6079 44.1173 96.7972 45.8239 96.1999C48.7253 95.1759 52.0959 94.4505 55.9359 94.0239C59.7759 93.5119 63.8719 93.2559 68.2239 93.2559C80 93.2559 88.8746 95.7305 94.8479 100.68C100.821 105.629 103.808 112.328 103.808 120.776C103.808 126.067 102.443 130.589 99.712 134.344C96.9813 138.099 93.7386 141 89.9839 143.048C93.056 147.229 96.0853 151.155 99.072 154.824C102.059 158.493 104.405 161.821 106.112 164.808C105.259 167.795 103.68 170.099 101.376 171.72C99.1573 173.256 96.6399 174.024 93.8239 174.024C91.9466 174.024 90.3253 173.811 88.9599 173.384C87.5946 172.957 86.3999 172.36 85.3759 171.592C84.352 170.824 83.4133 169.885 82.5599 168.776C81.7066 167.667 80.896 166.472 80.1279 165.192L69.3759 147.912H62.5919ZM70.6559 130.888C73.8986 130.888 76.4586 130.077 78.3359 128.456C80.2133 126.749 81.1519 124.275 81.1519 121.032C81.1519 117.789 80.0853 115.357 77.952 113.736C75.9039 112.029 72.6186 111.176 68.0959 111.176C66.8159 111.176 65.7919 111.219 65.0239 111.304C64.2559 111.389 63.4026 111.517 62.4639 111.688V130.888H70.6559Z" fill="#055E67"/>
</svg>
